<?xml version="1.0" encoding="utf-8" standalone="no"?>
<!DOCTYPE svg PUBLIC "-//W3C//DTD SVG 1.1//EN"
  "http://www.w3.org/Graphics/SVG/1.1/DTD/svg11.dtd">
<svg xmlns:xlink="http://www.w3.org/1999/xlink" width="518.76pt" height="212.616pt" viewBox="0 0 518.76 212.616" xmlns="http://www.w3.org/2000/svg" version="1.1">
 <metadata>
  <rdf:RDF xmlns:dc="http://purl.org/dc/elements/1.1/" xmlns:cc="http://creativecommons.org/ns#" xmlns:rdf="http://www.w3.org/1999/02/22-rdf-syntax-ns#">
   <cc:Work>
    <dc:type rdf:resource="http://purl.org/dc/dcmitype/StillImage"/>
    <dc:date>2026-09-13T12:47:22.550267</dc:date>
    <dc:format>image/svg+xml</dc:format>
    <dc:creator>
     <cc:Agent>
      <dc:title>Matplotlib v3.10.9, https://matplotlib.org/</dc:title>
     </cc:Agent>
    </dc:creator>
   </cc:Work>
  </rdf:RDF>
 </metadata>
 <defs>
  <style type="text/css">*{stroke-linejoin: round; stroke-linecap: butt}</style>
 </defs>
 <g id="figure_1">
  <g id="patch_1">
   <path d="M 0 212.616 
L 518.76 212.616 
L 518.76 0 
L 0 0 
z
" style="fill: #ffffff"/>
  </g>
  <g id="axes_1">
   <g id="patch_2">
    <path d="M 38.907 172.21896 
L 167.884418 172.21896 
L 167.884418 61.65864 
L 38.907 61.65864 
z
" style="fill: #ffffff"/>
   </g>
   <g id="matplotlib.axis_1">
    <g id="xtick_1">
     <g id="line2d_1">
      <path d="M 40.726431 172.21896 
L 40.726431 61.65864 
" clip-path="url(#p6dbba72301)" style="fill: none; stroke: #b0b0b0; stroke-opacity: 0.12; stroke-width: 0.8; stroke-linecap: square"/>
     </g>
     <g id="line2d_2">
      <defs>
       <path id="mee0ff38f88" d="M 0 0 
L 0 3.5 
" style="stroke: #000000; stroke-width: 0.8"/>
      </defs>
      <g>
       <use xlink:href="#mee0ff38f88" x="40.726431" y="172.21896" style="stroke: #000000; stroke-width: 0.8"/>
      </g>
     </g>
     <g id="text_1">
      <text style="font-size: 7px; font-family: 'Arial', 'DejaVu Sans', sans-serif; text-anchor: middle" x="40.726431" y="184.229429" transform="rotate(-0 40.726431 184.229429)">0</text>
     </g>
    </g>
    <g id="xtick_2">
     <g id="line2d_3">
      <path d="M 81.158223 172.21896 
L 81.158223 61.65864 
" clip-path="url(#p6dbba72301)" style="fill: none; stroke: #b0b0b0; stroke-opacity: 0.12; stroke-width: 0.8; stroke-linecap: square"/>
     </g>
     <g id="line2d_4">
      <g>
       <use xlink:href="#mee0ff38f88" x="81.158223" y="172.21896" style="stroke: #000000; stroke-width: 0.8"/>
      </g>
     </g>
     <g id="text_2">
      <text style="font-size: 7px; font-family: 'Arial', 'DejaVu Sans', sans-serif; text-anchor: middle" x="81.158223" y="184.229429" transform="rotate(-0 81.158223 184.229429)">10</text>
     </g>
    </g>
    <g id="xtick_3">
     <g id="line2d_5">
      <path d="M 121.590015 172.21896 
L 121.590015 61.65864 
" clip-path="url(#p6dbba72301)" style="fill: none; stroke: #b0b0b0; stroke-opacity: 0.12; stroke-width: 0.8; stroke-linecap: square"/>
     </g>
     <g id="line2d_6">
      <g>
       <use xlink:href="#mee0ff38f88" x="121.590015" y="172.21896" style="stroke: #000000; stroke-width: 0.8"/>
      </g>
     </g>
     <g id="text_3">
      <text style="font-size: 7px; font-family: 'Arial', 'DejaVu Sans', sans-serif; text-anchor: middle" x="121.590015" y="184.229429" transform="rotate(-0 121.590015 184.229429)">20</text>
     </g>
    </g>
    <g id="xtick_4">
     <g id="line2d_7">
      <path d="M 162.021808 172.21896 
L 162.021808 61.65864 
" clip-path="url(#p6dbba72301)" style="fill: none; stroke: #b0b0b0; stroke-opacity: 0.12; stroke-width: 0.8; stroke-linecap: square"/>
     </g>
     <g id="line2d_8">
      <g>
       <use xlink:href="#mee0ff38f88" x="162.021808" y="172.21896" style="stroke: #000000; stroke-width: 0.8"/>
      </g>
     </g>
     <g id="text_4">
      <text style="font-size: 7px; font-family: 'Arial', 'DejaVu Sans', sans-serif; text-anchor: middle" x="162.021808" y="184.229429" transform="rotate(-0 162.021808 184.229429)">30</text>
     </g>
    </g>
    <g id="text_5">
     <text style="font-size: 7px; font-family: 'Arial', 'DejaVu Sans', sans-serif; text-anchor: middle" x="103.395709" y="194.71646" transform="rotate(-0 103.395709 194.71646)">Forecast lead (days)</text>
    </g>
   </g>
   <g id="matplotlib.axis_2">
    <g id="ytick_1">
     <g id="line2d_9">
      <path d="M 38.907 167.194328 
L 167.884418 167.194328 
" clip-path="url(#p6dbba72301)" style="fill: none; stroke: #b0b0b0; stroke-opacity: 0.12; stroke-width: 0.8; stroke-linecap: square"/>
     </g>
     <g id="line2d_10">
      <defs>
       <path id="m9342d53a76" d="M 0 0 
L -3.5 0 
" style="stroke: #000000; stroke-width: 0.8"/>
      </defs>
      <g>
       <use xlink:href="#m9342d53a76" x="38.907" y="167.194328" style="stroke: #000000; stroke-width: 0.8"/>
      </g>
     </g>
     <g id="text_6">
      <text style="font-size: 7px; font-family: 'Arial', 'DejaVu Sans', sans-serif; text-anchor: end" x="31.907" y="169.699562" transform="rotate(-0 31.907 169.699562)">0</text>
     </g>
    </g>
    <g id="ytick_2">
     <g id="line2d_11">
      <path d="M 38.907 147.137154 
L 167.884418 147.137154 
" clip-path="url(#p6dbba72301)" style="fill: none; stroke: #b0b0b0; stroke-opacity: 0.12; stroke-width: 0.8; stroke-linecap: square"/>
     </g>
     <g id="line2d_12">
      <g>
       <use xlink:href="#m9342d53a76" x="38.907" y="147.137154" style="stroke: #000000; stroke-width: 0.8"/>
      </g>
     </g>
     <g id="text_7">
      <text style="font-size: 7px; font-family: 'Arial', 'DejaVu Sans', sans-serif; text-anchor: end" x="31.907" y="149.642389" transform="rotate(-0 31.907 149.642389)">2</text>
     </g>
    </g>
    <g id="ytick_3">
     <g id="line2d_13">
      <path d="M 38.907 127.079981 
L 167.884418 127.079981 
" clip-path="url(#p6dbba72301)" style="fill: none; stroke: #b0b0b0; stroke-opacity: 0.12; stroke-width: 0.8; stroke-linecap: square"/>
     </g>
     <g id="line2d_14">
      <g>
       <use xlink:href="#m9342d53a76" x="38.907" y="127.079981" style="stroke: #000000; stroke-width: 0.8"/>
      </g>
     </g>
     <g id="text_8">
      <text style="font-size: 7px; font-family: 'Arial', 'DejaVu Sans', sans-serif; text-anchor: end" x="31.907" y="129.585216" transform="rotate(-0 31.907 129.585216)">4</text>
     </g>
    </g>
    <g id="ytick_4">
     <g id="line2d_15">
      <path d="M 38.907 107.022808 
L 167.884418 107.022808 
" clip-path="url(#p6dbba72301)" style="fill: none; stroke: #b0b0b0; stroke-opacity: 0.12; stroke-width: 0.8; stroke-linecap: square"/>
     </g>
     <g id="line2d_16">
      <g>
       <use xlink:href="#m9342d53a76" x="38.907" y="107.022808" style="stroke: #000000; stroke-width: 0.8"/>
      </g>
     </g>
     <g id="text_9">
      <text style="font-size: 7px; font-family: 'Arial', 'DejaVu Sans', sans-serif; text-anchor: end" x="31.907" y="109.528042" transform="rotate(-0 31.907 109.528042)">6</text>
     </g>
    </g>
    <g id="ytick_5">
     <g id="line2d_17">
      <path d="M 38.907 86.965635 
L 167.884418 86.965635 
" clip-path="url(#p6dbba72301)" style="fill: none; stroke: #b0b0b0; stroke-opacity: 0.12; stroke-width: 0.8; stroke-linecap: square"/>
     </g>
     <g id="line2d_18">
      <g>
       <use xlink:href="#m9342d53a76" x="38.907" y="86.965635" style="stroke: #000000; stroke-width: 0.8"/>
      </g>
     </g>
     <g id="text_10">
      <text style="font-size: 7px; font-family: 'Arial', 'DejaVu Sans', sans-serif; text-anchor: end" x="31.907" y="89.470869" transform="rotate(-0 31.907 89.470869)">8</text>
     </g>
    </g>
    <g id="ytick_6">
     <g id="line2d_19">
      <path d="M 38.907 66.908462 
L 167.884418 66.908462 
" clip-path="url(#p6dbba72301)" style="fill: none; stroke: #b0b0b0; stroke-opacity: 0.12; stroke-width: 0.8; stroke-linecap: square"/>
     </g>
     <g id="line2d_20">
      <g>
       <use xlink:href="#m9342d53a76" x="38.907" y="66.908462" style="stroke: #000000; stroke-width: 0.8"/>
      </g>
     </g>
     <g id="text_11">
      <text style="font-size: 7px; font-family: 'Arial', 'DejaVu Sans', sans-serif; text-anchor: end" x="31.907" y="69.413696" transform="rotate(-0 31.907 69.413696)">10</text>
     </g>
    </g>
   </g>
   <g id="line2d_21">
    <path d="M 44.76961 167.193488 
L 48.812789 167.190677 
L 52.855968 167.184708 
L 56.899148 167.174425 
L 60.942327 167.158498 
L 64.985506 167.135445 
L 69.028685 167.103734 
L 73.071865 167.061835 
L 77.115044 167.008685 
L 81.158223 166.944414 
L 85.201402 166.865851 
L 89.244581 166.770273 
L 93.287761 166.655403 
L 97.33094 166.518867 
L 101.374119 166.358404 
L 105.417298 166.174846 
L 109.460478 165.970796 
L 113.503657 165.751721 
L 117.546836 165.516602 
L 121.590015 165.260562 
L 125.633195 164.984022 
L 129.676374 164.687636 
L 133.719553 164.369986 
L 137.762732 164.028335 
L 141.805912 163.654938 
L 145.849091 163.261969 
L 149.89227 162.848323 
L 153.935449 162.408946 
L 157.978628 161.941009 
L 162.021808 161.4377 
" clip-path="url(#p6dbba72301)" style="fill: none; stroke: #0072b2; stroke-width: 0.9; stroke-linecap: square"/>
   </g>
   <g id="line2d_22">
    <path d="M 44.76961 167.193491 
L 48.812789 167.190707 
L 52.855968 167.184835 
L 56.899148 167.17474 
L 60.942327 167.159132 
L 64.985506 167.136616 
L 69.028685 167.105805 
L 73.071865 167.065398 
L 77.115044 167.014533 
L 81.158223 166.9537 
L 85.201402 166.880336 
L 89.244581 166.792824 
L 93.287761 166.690267 
L 97.33094 166.571697 
L 101.374119 166.43613 
L 105.417298 166.282627 
L 109.460478 166.11037 
L 113.503657 165.918705 
L 117.546836 165.707155 
L 121.590015 165.475416 
L 125.633195 165.223336 
L 129.676374 164.950871 
L 133.719553 164.658137 
L 137.762732 164.345406 
L 141.805912 164.013094 
L 145.849091 163.661672 
L 149.89227 163.291297 
L 153.935449 162.900887 
L 157.978628 162.486862 
L 162.021808 162.039961 
" clip-path="url(#p6dbba72301)" style="fill: none; stroke-dasharray: 3.33,1.44; stroke-dashoffset: 0; stroke: #d55e00; stroke-width: 0.9"/>
   </g>
   <g id="line2d_23">
    <path d="M 44.76961 162.472177 
L 48.812789 157.975067 
L 52.855968 153.719053 
L 56.899148 149.696733 
L 60.942327 145.883552 
L 64.985506 142.238109 
L 69.028685 138.711964 
L 73.071865 135.268783 
L 77.115044 131.879783 
L 81.158223 128.522367 
L 85.201402 125.182156 
L 89.244581 121.856277 
L 93.287761 118.549334 
L 97.33094 115.266682 
L 101.374119 112.011832 
L 105.417298 108.788982 
L 109.460478 105.599233 
L 113.503657 102.443592 
L 117.546836 99.322667 
L 121.590015 96.232604 
L 125.633195 93.172832 
L 129.676374 90.142363 
L 133.719553 87.138358 
L 137.762732 84.157372 
L 141.805912 81.20073 
L 145.849091 78.27053 
L 149.89227 75.36536 
L 153.935449 72.468338 
L 157.978628 69.575052 
L 162.021808 66.684109 
" clip-path="url(#p6dbba72301)" style="fill: none; stroke-dasharray: 0.9,1.485; stroke-dashoffset: 0; stroke: #999999; stroke-width: 0.9"/>
   </g>
   <g id="line2d_24">
    <path d="M 44.76961 167.162079 
L 48.812789 167.097657 
L 52.855968 167.001227 
L 56.899148 166.873026 
L 60.942327 166.713361 
L 64.985506 166.522607 
L 69.028685 166.301207 
L 73.071865 166.049671 
L 77.115044 165.768578 
L 81.158223 165.458574 
L 85.201402 165.12036 
L 89.244581 164.754623 
L 93.287761 164.362067 
L 97.33094 163.943421 
L 101.374119 163.499444 
L 105.417298 163.030917 
L 109.460478 162.538648 
L 113.503657 162.023466 
L 117.546836 161.486224 
L 121.590015 160.92779 
L 125.633195 160.349054 
L 129.676374 159.750918 
L 133.719553 159.134297 
L 137.762732 158.500118 
L 141.805912 157.849313 
L 145.849091 157.182822 
L 149.89227 156.501584 
L 153.935449 155.806536 
L 157.978628 155.098612 
L 162.021808 154.378736 
" clip-path="url(#p6dbba72301)" style="fill: none; stroke-dasharray: 5.76,1.44,0.9,1.44; stroke-dashoffset: 0; stroke: #009e73; stroke-width: 0.9"/>
   </g>
   <g id="patch_3">
    <path d="M 38.907 172.21896 
L 38.907 61.65864 
" style="fill: none; stroke: #000000; stroke-width: 0.8; stroke-linejoin: miter; stroke-linecap: square"/>
   </g>
   <g id="patch_4">
    <path d="M 38.907 172.21896 
L 167.884418 172.21896 
" style="fill: none; stroke: #000000; stroke-width: 0.8; stroke-linejoin: miter; stroke-linecap: square"/>
   </g>
   <g id="text_12">
    <text style="font-weight: 700; font-size: 8px; font-family: 'Arial', 'DejaVu Sans', sans-serif; text-anchor: end" x="38.907" y="60.07989" transform="rotate(-0 38.907 60.07989)">a</text>
   </g>
   <g id="text_13">
    <text style="font-size: 8.4px; font-family: 'Arial', 'DejaVu Sans', sans-serif; text-anchor: middle" x="103.395709" y="55.65864" transform="rotate(-0 103.395709 55.65864)">Mean point RMSE (mm)</text>
   </g>
  </g>
  <g id="axes_2">
   <g id="patch_5">
    <path d="M 209.157191 172.21896 
L 338.134609 172.21896 
L 338.134609 61.65864 
L 209.157191 61.65864 
z
" style="fill: #ffffff"/>
   </g>
   <g id="matplotlib.axis_3">
    <g id="xtick_5">
     <g id="line2d_25">
      <path d="M 210.976622 172.21896 
L 210.976622 61.65864 
" clip-path="url(#p9a160dc909)" style="fill: none; stroke: #b0b0b0; stroke-opacity: 0.12; stroke-width: 0.8; stroke-linecap: square"/>
     </g>
     <g id="line2d_26">
      <g>
       <use xlink:href="#mee0ff38f88" x="210.976622" y="172.21896" style="stroke: #000000; stroke-width: 0.8"/>
      </g>
     </g>
     <g id="text_14">
      <text style="font-size: 7px; font-family: 'Arial', 'DejaVu Sans', sans-serif; text-anchor: middle" x="210.976622" y="184.229429" transform="rotate(-0 210.976622 184.229429)">0</text>
     </g>
    </g>
    <g id="xtick_6">
     <g id="line2d_27">
      <path d="M 251.408414 172.21896 
L 251.408414 61.65864 
" clip-path="url(#p9a160dc909)" style="fill: none; stroke: #b0b0b0; stroke-opacity: 0.12; stroke-width: 0.8; stroke-linecap: square"/>
     </g>
     <g id="line2d_28">
      <g>
       <use xlink:href="#mee0ff38f88" x="251.408414" y="172.21896" style="stroke: #000000; stroke-width: 0.8"/>
      </g>
     </g>
     <g id="text_15">
      <text style="font-size: 7px; font-family: 'Arial', 'DejaVu Sans', sans-serif; text-anchor: middle" x="251.408414" y="184.229429" transform="rotate(-0 251.408414 184.229429)">10</text>
     </g>
    </g>
    <g id="xtick_7">
     <g id="line2d_29">
      <path d="M 291.840207 172.21896 
L 291.840207 61.65864 
" clip-path="url(#p9a160dc909)" style="fill: none; stroke: #b0b0b0; stroke-opacity: 0.12; stroke-width: 0.8; stroke-linecap: square"/>
     </g>
     <g id="line2d_30">
      <g>
       <use xlink:href="#mee0ff38f88" x="291.840207" y="172.21896" style="stroke: #000000; stroke-width: 0.8"/>
      </g>
     </g>
     <g id="text_16">
      <text style="font-size: 7px; font-family: 'Arial', 'DejaVu Sans', sans-serif; text-anchor: middle" x="291.840207" y="184.229429" transform="rotate(-0 291.840207 184.229429)">20</text>
     </g>
    </g>
    <g id="xtick_8">
     <g id="line2d_31">
      <path d="M 332.271999 172.21896 
L 332.271999 61.65864 
" clip-path="url(#p9a160dc909)" style="fill: none; stroke: #b0b0b0; stroke-opacity: 0.12; stroke-width: 0.8; stroke-linecap: square"/>
     </g>
     <g id="line2d_32">
      <g>
       <use xlink:href="#mee0ff38f88" x="332.271999" y="172.21896" style="stroke: #000000; stroke-width: 0.8"/>
      </g>
     </g>
     <g id="text_17">
      <text style="font-size: 7px; font-family: 'Arial', 'DejaVu Sans', sans-serif; text-anchor: middle" x="332.271999" y="184.229429" transform="rotate(-0 332.271999 184.229429)">30</text>
     </g>
    </g>
    <g id="text_18">
     <text style="font-size: 7px; font-family: 'Arial', 'DejaVu Sans', sans-serif; text-anchor: middle" x="273.6459" y="194.71646" transform="rotate(-0 273.6459 194.71646)">Forecast lead (days)</text>
    </g>
   </g>
   <g id="matplotlib.axis_4">
    <g id="ytick_7">
     <g id="line2d_33">
      <path d="M 209.157191 167.234043 
L 338.134609 167.234043 
" clip-path="url(#p9a160dc909)" style="fill: none; stroke: #b0b0b0; stroke-opacity: 0.12; stroke-width: 0.8; stroke-linecap: square"/>
     </g>
     <g id="line2d_34">
      <g>
       <use xlink:href="#m9342d53a76" x="209.157191" y="167.234043" style="stroke: #000000; stroke-width: 0.8"/>
      </g>
     </g>
     <g id="text_19">
      <text style="font-size: 7px; font-family: 'Arial', 'DejaVu Sans', sans-serif; text-anchor: end" x="202.157191" y="169.739277" transform="rotate(-0 202.157191 169.739277)">0</text>
     </g>
    </g>
    <g id="ytick_8">
     <g id="line2d_35">
      <path d="M 209.157191 150.105662 
L 338.134609 150.105662 
" clip-path="url(#p9a160dc909)" style="fill: none; stroke: #b0b0b0; stroke-opacity: 0.12; stroke-width: 0.8; stroke-linecap: square"/>
     </g>
     <g id="line2d_36">
      <g>
       <use xlink:href="#m9342d53a76" x="209.157191" y="150.105662" style="stroke: #000000; stroke-width: 0.8"/>
      </g>
     </g>
     <g id="text_20">
      <text style="font-size: 7px; font-family: 'Arial', 'DejaVu Sans', sans-serif; text-anchor: end" x="202.157191" y="152.610897" transform="rotate(-0 202.157191 152.610897)">1</text>
     </g>
    </g>
    <g id="ytick_9">
     <g id="line2d_37">
      <path d="M 209.157191 132.977282 
L 338.134609 132.977282 
" clip-path="url(#p9a160dc909)" style="fill: none; stroke: #b0b0b0; stroke-opacity: 0.12; stroke-width: 0.8; stroke-linecap: square"/>
     </g>
     <g id="line2d_38">
      <g>
       <use xlink:href="#m9342d53a76" x="209.157191" y="132.977282" style="stroke: #000000; stroke-width: 0.8"/>
      </g>
     </g>
     <g id="text_21">
      <text style="font-size: 7px; font-family: 'Arial', 'DejaVu Sans', sans-serif; text-anchor: end" x="202.157191" y="135.482516" transform="rotate(-0 202.157191 135.482516)">2</text>
     </g>
    </g>
    <g id="ytick_10">
     <g id="line2d_39">
      <path d="M 209.157191 115.848901 
L 338.134609 115.848901 
" clip-path="url(#p9a160dc909)" style="fill: none; stroke: #b0b0b0; stroke-opacity: 0.12; stroke-width: 0.8; stroke-linecap: square"/>
     </g>
     <g id="line2d_40">
      <g>
       <use xlink:href="#m9342d53a76" x="209.157191" y="115.848901" style="stroke: #000000; stroke-width: 0.8"/>
      </g>
     </g>
     <g id="text_22">
      <text style="font-size: 7px; font-family: 'Arial', 'DejaVu Sans', sans-serif; text-anchor: end" x="202.157191" y="118.354136" transform="rotate(-0 202.157191 118.354136)">3</text>
     </g>
    </g>
    <g id="ytick_11">
     <g id="line2d_41">
      <path d="M 209.157191 98.720521 
L 338.134609 98.720521 
" clip-path="url(#p9a160dc909)" style="fill: none; stroke: #b0b0b0; stroke-opacity: 0.12; stroke-width: 0.8; stroke-linecap: square"/>
     </g>
     <g id="line2d_42">
      <g>
       <use xlink:href="#m9342d53a76" x="209.157191" y="98.720521" style="stroke: #000000; stroke-width: 0.8"/>
      </g>
     </g>
     <g id="text_23">
      <text style="font-size: 7px; font-family: 'Arial', 'DejaVu Sans', sans-serif; text-anchor: end" x="202.157191" y="101.225755" transform="rotate(-0 202.157191 101.225755)">4</text>
     </g>
    </g>
    <g id="ytick_12">
     <g id="line2d_43">
      <path d="M 209.157191 81.592141 
L 338.134609 81.592141 
" clip-path="url(#p9a160dc909)" style="fill: none; stroke: #b0b0b0; stroke-opacity: 0.12; stroke-width: 0.8; stroke-linecap: square"/>
     </g>
     <g id="line2d_44">
      <g>
       <use xlink:href="#m9342d53a76" x="209.157191" y="81.592141" style="stroke: #000000; stroke-width: 0.8"/>
      </g>
     </g>
     <g id="text_24">
      <text style="font-size: 7px; font-family: 'Arial', 'DejaVu Sans', sans-serif; text-anchor: end" x="202.157191" y="84.097375" transform="rotate(-0 202.157191 84.097375)">5</text>
     </g>
    </g>
    <g id="ytick_13">
     <g id="line2d_45">
      <path d="M 209.157191 64.46376 
L 338.134609 64.46376 
" clip-path="url(#p9a160dc909)" style="fill: none; stroke: #b0b0b0; stroke-opacity: 0.12; stroke-width: 0.8; stroke-linecap: square"/>
     </g>
     <g id="line2d_46">
      <g>
       <use xlink:href="#m9342d53a76" x="209.157191" y="64.46376" style="stroke: #000000; stroke-width: 0.8"/>
      </g>
     </g>
     <g id="text_25">
      <text style="font-size: 7px; font-family: 'Arial', 'DejaVu Sans', sans-serif; text-anchor: end" x="202.157191" y="66.968995" transform="rotate(-0 202.157191 66.968995)">6</text>
     </g>
    </g>
   </g>
   <g id="line2d_47">
    <path d="M 215.019801 167.193491 
L 219.06298 167.190397 
L 223.10616 167.183103 
L 227.149339 167.171398 
L 231.192518 167.152868 
L 235.235697 167.125848 
L 239.278877 167.090133 
L 243.322056 167.045527 
L 247.365235 166.989975 
L 251.408414 166.924205 
L 255.451593 166.845875 
L 259.494773 166.752714 
L 263.537952 166.642732 
L 267.581131 166.512524 
L 271.62431 166.358382 
L 275.66749 166.181401 
L 279.710669 165.984326 
L 283.753848 165.76828 
L 287.797027 165.528428 
L 291.840207 165.265464 
L 295.883386 164.982221 
L 299.926565 164.679993 
L 303.969744 164.351934 
L 308.012923 163.996568 
L 312.056103 163.61861 
L 316.099282 163.21441 
L 320.142461 162.784192 
L 324.18564 162.331837 
L 328.22882 161.846624 
L 332.271999 161.324359 
" clip-path="url(#p9a160dc909)" style="fill: none; stroke: #0072b2; stroke-width: 0.9; stroke-linecap: square"/>
   </g>
   <g id="line2d_48">
    <path d="M 215.019801 167.193491 
L 219.06298 167.190398 
L 223.10616 167.183115 
L 227.149339 167.171445 
L 231.192518 167.152989 
L 235.235697 167.1261 
L 239.278877 167.090657 
L 243.322056 167.046584 
L 247.365235 166.992006 
L 251.408414 166.927901 
L 255.451593 166.85228 
L 259.494773 166.763251 
L 263.537952 166.659437 
L 267.581131 166.538121 
L 271.62431 166.396354 
L 275.66749 166.234738 
L 279.710669 166.055003 
L 283.753848 165.855872 
L 287.797027 165.633203 
L 291.840207 165.389328 
L 295.883386 165.126648 
L 299.926565 164.84553 
L 303.969744 164.540081 
L 308.012923 164.211067 
L 312.056103 163.867301 
L 316.099282 163.498543 
L 320.142461 163.105911 
L 324.18564 162.696711 
L 328.22882 162.260081 
L 332.271999 161.790054 
" clip-path="url(#p9a160dc909)" style="fill: none; stroke-dasharray: 3.33,1.44; stroke-dashoffset: 0; stroke: #d55e00; stroke-width: 0.9"/>
   </g>
   <g id="line2d_49">
    <path d="M 215.019801 163.624822 
L 219.06298 160.060901 
L 223.10616 156.617443 
L 227.149339 153.197809 
L 231.192518 149.789364 
L 235.235697 146.487364 
L 239.278877 143.179359 
L 243.322056 139.957865 
L 247.365235 136.736067 
L 251.408414 133.580673 
L 255.451593 130.311411 
L 259.494773 127.099154 
L 263.537952 123.862594 
L 267.581131 120.546723 
L 271.62431 117.153606 
L 275.66749 113.702456 
L 279.710669 110.461651 
L 283.753848 106.957093 
L 287.797027 103.415386 
L 291.840207 100.025211 
L 295.883386 96.633335 
L 299.926565 93.21066 
L 303.969744 89.817642 
L 308.012923 86.207284 
L 312.056103 82.778185 
L 316.099282 79.301277 
L 320.142461 75.903682 
L 324.18564 73.213726 
L 328.22882 70.287742 
L 332.271999 66.684109 
" clip-path="url(#p9a160dc909)" style="fill: none; stroke-dasharray: 0.9,1.485; stroke-dashoffset: 0; stroke: #999999; stroke-width: 0.9"/>
   </g>
   <g id="line2d_50">
    <path d="M 215.019801 167.16208 
L 219.06298 167.042408 
L 223.10616 166.848782 
L 227.149339 166.587783 
L 231.192518 166.258744 
L 235.235697 165.860771 
L 239.278877 165.393677 
L 243.322056 164.856672 
L 247.365235 164.250371 
L 251.408414 163.573802 
L 255.451593 162.82554 
L 259.494773 162.01196 
L 263.537952 161.124607 
L 267.581131 160.171184 
L 271.62431 159.154129 
L 275.66749 158.065996 
L 279.710669 156.911335 
L 283.753848 155.697783 
L 287.797027 154.416354 
L 291.840207 153.077136 
L 295.883386 151.680661 
L 299.926565 150.219547 
L 303.969744 148.712505 
L 308.012923 147.137314 
L 312.056103 145.517882 
L 316.099282 143.856267 
L 320.142461 142.136911 
L 324.18564 140.376364 
L 328.22882 138.58813 
L 332.271999 136.748413 
" clip-path="url(#p9a160dc909)" style="fill: none; stroke-dasharray: 5.76,1.44,0.9,1.44; stroke-dashoffset: 0; stroke: #009e73; stroke-width: 0.9"/>
   </g>
   <g id="patch_6">
    <path d="M 209.157191 172.21896 
L 209.157191 61.65864 
" style="fill: none; stroke: #000000; stroke-width: 0.8; stroke-linejoin: miter; stroke-linecap: square"/>
   </g>
   <g id="patch_7">
    <path d="M 209.157191 172.21896 
L 338.134609 172.21896 
" style="fill: none; stroke: #000000; stroke-width: 0.8; stroke-linejoin: miter; stroke-linecap: square"/>
   </g>
   <g id="text_26">
    <text style="font-weight: 700; font-size: 8px; font-family: 'Arial', 'DejaVu Sans', sans-serif; text-anchor: end" x="209.157191" y="60.07989" transform="rotate(-0 209.157191 60.07989)">b</text>
   </g>
   <g id="text_27">
    <text style="font-size: 8.4px; font-family: 'Arial', 'DejaVu Sans', sans-serif; text-anchor: middle" x="273.6459" y="55.65864" transform="rotate(-0 273.6459 55.65864)">CRPS (mm)</text>
   </g>
  </g>
  <g id="axes_3">
   <g id="patch_8">
    <path d="M 379.407382 172.21896 
L 508.3848 172.21896 
L 508.3848 61.65864 
L 379.407382 61.65864 
z
" style="fill: #ffffff"/>
   </g>
   <g id="matplotlib.axis_5">
    <g id="xtick_9">
     <g id="line2d_51">
      <path d="M 381.226813 172.21896 
L 381.226813 61.65864 
" clip-path="url(#pd832adfc88)" style="fill: none; stroke: #b0b0b0; stroke-opacity: 0.12; stroke-width: 0.8; stroke-linecap: square"/>
     </g>
     <g id="line2d_52">
      <g>
       <use xlink:href="#mee0ff38f88" x="381.226813" y="172.21896" style="stroke: #000000; stroke-width: 0.8"/>
      </g>
     </g>
     <g id="text_28">
      <text style="font-size: 7px; font-family: 'Arial', 'DejaVu Sans', sans-serif; text-anchor: middle" x="381.226813" y="184.229429" transform="rotate(-0 381.226813 184.229429)">0</text>
     </g>
    </g>
    <g id="xtick_10">
     <g id="line2d_53">
      <path d="M 421.658605 172.21896 
L 421.658605 61.65864 
" clip-path="url(#pd832adfc88)" style="fill: none; stroke: #b0b0b0; stroke-opacity: 0.12; stroke-width: 0.8; stroke-linecap: square"/>
     </g>
     <g id="line2d_54">
      <g>
       <use xlink:href="#mee0ff38f88" x="421.658605" y="172.21896" style="stroke: #000000; stroke-width: 0.8"/>
      </g>
     </g>
     <g id="text_29">
      <text style="font-size: 7px; font-family: 'Arial', 'DejaVu Sans', sans-serif; text-anchor: middle" x="421.658605" y="184.229429" transform="rotate(-0 421.658605 184.229429)">10</text>
     </g>
    </g>
    <g id="xtick_11">
     <g id="line2d_55">
      <path d="M 462.090398 172.21896 
L 462.090398 61.65864 
" clip-path="url(#pd832adfc88)" style="fill: none; stroke: #b0b0b0; stroke-opacity: 0.12; stroke-width: 0.8; stroke-linecap: square"/>
     </g>
     <g id="line2d_56">
      <g>
       <use xlink:href="#mee0ff38f88" x="462.090398" y="172.21896" style="stroke: #000000; stroke-width: 0.8"/>
      </g>
     </g>
     <g id="text_30">
      <text style="font-size: 7px; font-family: 'Arial', 'DejaVu Sans', sans-serif; text-anchor: middle" x="462.090398" y="184.229429" transform="rotate(-0 462.090398 184.229429)">20</text>
     </g>
    </g>
    <g id="xtick_12">
     <g id="line2d_57">
      <path d="M 502.52219 172.21896 
L 502.52219 61.65864 
" clip-path="url(#pd832adfc88)" style="fill: none; stroke: #b0b0b0; stroke-opacity: 0.12; stroke-width: 0.8; stroke-linecap: square"/>
     </g>
     <g id="line2d_58">
      <g>
       <use xlink:href="#mee0ff38f88" x="502.52219" y="172.21896" style="stroke: #000000; stroke-width: 0.8"/>
      </g>
     </g>
     <g id="text_31">
      <text style="font-size: 7px; font-family: 'Arial', 'DejaVu Sans', sans-serif; text-anchor: middle" x="502.52219" y="184.229429" transform="rotate(-0 502.52219 184.229429)">30</text>
     </g>
    </g>
    <g id="text_32">
     <text style="font-size: 7px; font-family: 'Arial', 'DejaVu Sans', sans-serif; text-anchor: middle" x="443.896091" y="194.71646" transform="rotate(-0 443.896091 194.71646)">Forecast lead (days)</text>
    </g>
   </g>
   <g id="matplotlib.axis_6">
    <g id="ytick_14">
     <g id="line2d_59">
      <path d="M 379.407382 172.21896 
L 508.3848 172.21896 
" clip-path="url(#pd832adfc88)" style="fill: none; stroke: #b0b0b0; stroke-opacity: 0.12; stroke-width: 0.8; stroke-linecap: square"/>
     </g>
     <g id="line2d_60">
      <g>
       <use xlink:href="#m9342d53a76" x="379.407382" y="172.21896" style="stroke: #000000; stroke-width: 0.8"/>
      </g>
     </g>
     <g id="text_33">
      <text style="font-size: 7px; font-family: 'Arial', 'DejaVu Sans', sans-serif; text-anchor: end" x="372.407382" y="174.724194" transform="rotate(-0 372.407382 174.724194)">0.0</text>
     </g>
    </g>
    <g id="ytick_15">
     <g id="line2d_61">
      <path d="M 379.407382 150.750937 
L 508.3848 150.750937 
" clip-path="url(#pd832adfc88)" style="fill: none; stroke: #b0b0b0; stroke-opacity: 0.12; stroke-width: 0.8; stroke-linecap: square"/>
     </g>
     <g id="line2d_62">
      <g>
       <use xlink:href="#m9342d53a76" x="379.407382" y="150.750937" style="stroke: #000000; stroke-width: 0.8"/>
      </g>
     </g>
     <g id="text_34">
      <text style="font-size: 7px; font-family: 'Arial', 'DejaVu Sans', sans-serif; text-anchor: end" x="372.407382" y="153.256171" transform="rotate(-0 372.407382 153.256171)">0.2</text>
     </g>
    </g>
    <g id="ytick_16">
     <g id="line2d_63">
      <path d="M 379.407382 129.282913 
L 508.3848 129.282913 
" clip-path="url(#pd832adfc88)" style="fill: none; stroke: #b0b0b0; stroke-opacity: 0.12; stroke-width: 0.8; stroke-linecap: square"/>
     </g>
     <g id="line2d_64">
      <g>
       <use xlink:href="#m9342d53a76" x="379.407382" y="129.282913" style="stroke: #000000; stroke-width: 0.8"/>
      </g>
     </g>
     <g id="text_35">
      <text style="font-size: 7px; font-family: 'Arial', 'DejaVu Sans', sans-serif; text-anchor: end" x="372.407382" y="131.788148" transform="rotate(-0 372.407382 131.788148)">0.4</text>
     </g>
    </g>
    <g id="ytick_17">
     <g id="line2d_65">
      <path d="M 379.407382 107.81489 
L 508.3848 107.81489 
" clip-path="url(#pd832adfc88)" style="fill: none; stroke: #b0b0b0; stroke-opacity: 0.12; stroke-width: 0.8; stroke-linecap: square"/>
     </g>
     <g id="line2d_66">
      <g>
       <use xlink:href="#m9342d53a76" x="379.407382" y="107.81489" style="stroke: #000000; stroke-width: 0.8"/>
      </g>
     </g>
     <g id="text_36">
      <text style="font-size: 7px; font-family: 'Arial', 'DejaVu Sans', sans-serif; text-anchor: end" x="372.407382" y="110.320124" transform="rotate(-0 372.407382 110.320124)">0.6</text>
     </g>
    </g>
    <g id="ytick_18">
     <g id="line2d_67">
      <path d="M 379.407382 86.346867 
L 508.3848 86.346867 
" clip-path="url(#pd832adfc88)" style="fill: none; stroke: #b0b0b0; stroke-opacity: 0.12; stroke-width: 0.8; stroke-linecap: square"/>
     </g>
     <g id="line2d_68">
      <g>
       <use xlink:href="#m9342d53a76" x="379.407382" y="86.346867" style="stroke: #000000; stroke-width: 0.8"/>
      </g>
     </g>
     <g id="text_37">
      <text style="font-size: 7px; font-family: 'Arial', 'DejaVu Sans', sans-serif; text-anchor: end" x="372.407382" y="88.852101" transform="rotate(-0 372.407382 88.852101)">0.8</text>
     </g>
    </g>
    <g id="ytick_19">
     <g id="line2d_69">
      <path d="M 379.407382 64.878843 
L 508.3848 64.878843 
" clip-path="url(#pd832adfc88)" style="fill: none; stroke: #b0b0b0; stroke-opacity: 0.12; stroke-width: 0.8; stroke-linecap: square"/>
     </g>
     <g id="line2d_70">
      <g>
       <use xlink:href="#m9342d53a76" x="379.407382" y="64.878843" style="stroke: #000000; stroke-width: 0.8"/>
      </g>
     </g>
     <g id="text_38">
      <text style="font-size: 7px; font-family: 'Arial', 'DejaVu Sans', sans-serif; text-anchor: end" x="372.407382" y="67.384078" transform="rotate(-0 372.407382 67.384078)">1.0</text>
     </g>
    </g>
   </g>
   <g id="line2d_71">
    <path d="M 385.269992 64.878843 
L 389.313172 64.878843 
L 393.356351 64.878843 
L 397.39953 64.878843 
L 401.442709 65.239529 
L 405.485888 65.819154 
L 409.529068 66.184331 
L 413.572247 67.133277 
L 417.615426 67.722773 
L 421.658605 68.096122 
L 425.701785 68.471511 
L 429.744964 68.701916 
L 433.788143 69.154755 
L 437.831322 69.536163 
L 441.874502 69.771418 
L 445.917681 70.825664 
L 449.96086 71.363976 
L 454.004039 72.428531 
L 458.047219 73.049285 
L 462.090398 73.598349 
L 466.133577 73.924359 
L 470.176756 74.630164 
L 474.219935 75.112541 
L 478.263115 75.445611 
L 482.306294 75.933046 
L 486.349473 76.576164 
L 490.392652 77.299628 
L 494.435832 78.027239 
L 498.479011 79.144592 
L 502.52219 79.64971 
" clip-path="url(#pd832adfc88)" style="fill: none; stroke: #0072b2; stroke-width: 0.9; stroke-linecap: square"/>
   </g>
   <g id="line2d_72">
    <path d="M 385.269992 64.878843 
L 389.313172 64.878843 
L 393.356351 64.878843 
L 397.39953 64.878843 
L 401.442709 65.167392 
L 405.485888 65.819154 
L 409.529068 66.184331 
L 413.572247 67.060553 
L 417.615426 67.504009 
L 421.658605 67.949882 
L 425.701785 68.398192 
L 429.744964 68.407834 
L 433.788143 68.933587 
L 437.831322 69.314385 
L 441.874502 69.474898 
L 445.917681 70.156647 
L 449.96086 70.991267 
L 454.004039 71.830536 
L 458.047219 72.44962 
L 462.090398 73.072172 
L 466.133577 73.321325 
L 470.176756 73.723064 
L 474.219935 74.127074 
L 478.263115 74.229293 
L 482.306294 74.637036 
L 486.349473 75.352915 
L 490.392652 75.689527 
L 494.435832 76.104959 
L 498.479011 76.985451 
L 502.52219 77.097675 
" clip-path="url(#pd832adfc88)" style="fill: none; stroke-dasharray: 3.33,1.44; stroke-dashoffset: 0; stroke: #d55e00; stroke-width: 0.9"/>
   </g>
   <g id="line2d_73">
    <path d="M 385.269992 72.301298 
L 389.313172 72.535772 
L 393.356351 72.412742 
L 397.39953 72.43294 
L 401.442709 72.813933 
L 405.485888 72.907653 
L 409.529068 72.929352 
L 413.572247 73.16934 
L 417.615426 73.26479 
L 421.658605 73.28764 
L 425.701785 73.457254 
L 429.744964 73.554278 
L 433.788143 73.725556 
L 437.831322 73.971705 
L 441.874502 74.219213 
L 445.917681 74.542427 
L 449.96086 74.718354 
L 454.004039 75.119509 
L 458.047219 75.447947 
L 462.090398 75.402384 
L 466.133577 75.582703 
L 470.176756 75.764038 
L 474.219935 75.870593 
L 478.263115 76.129791 
L 482.306294 76.390461 
L 486.349473 76.576164 
L 490.392652 76.686256 
L 494.435832 76.335632 
L 498.479011 76.21433 
L 502.52219 76.401666 
" clip-path="url(#pd832adfc88)" style="fill: none; stroke-dasharray: 0.9,1.485; stroke-dashoffset: 0; stroke: #999999; stroke-width: 0.9"/>
   </g>
   <g id="line2d_74">
    <path d="M 385.269992 64.878843 
L 389.313172 67.741247 
L 393.356351 68.179409 
L 397.39953 68.260201 
L 401.442709 68.341428 
L 405.485888 68.423093 
L 409.529068 68.505199 
L 413.572247 68.58775 
L 417.615426 68.597829 
L 421.658605 68.681082 
L 425.701785 68.83811 
L 429.744964 68.775437 
L 433.788143 68.933587 
L 437.831322 69.018683 
L 441.874502 68.955989 
L 445.917681 69.041618 
L 449.96086 69.127723 
L 454.004039 69.139558 
L 458.047219 69.226418 
L 462.090398 69.238596 
L 466.133577 69.250843 
L 470.176756 69.33875 
L 474.219935 69.275543 
L 478.263115 69.440038 
L 482.306294 69.452996 
L 486.349473 69.389575 
L 490.392652 69.479134 
L 494.435832 69.492316 
L 498.479011 69.351348 
L 502.52219 69.286903 
" clip-path="url(#pd832adfc88)" style="fill: none; stroke-dasharray: 5.76,1.44,0.9,1.44; stroke-dashoffset: 0; stroke: #009e73; stroke-width: 0.9"/>
   </g>
   <g id="line2d_75">
    <path d="M 379.407382 75.612855 
L 508.3848 75.612855 
" clip-path="url(#pd832adfc88)" style="fill: none; stroke: #555555; stroke-width: 0.5; stroke-linecap: square"/>
   </g>
   <g id="patch_9">
    <path d="M 379.407382 172.21896 
L 379.407382 61.65864 
" style="fill: none; stroke: #000000; stroke-width: 0.8; stroke-linejoin: miter; stroke-linecap: square"/>
   </g>
   <g id="patch_10">
    <path d="M 379.407382 172.21896 
L 508.3848 172.21896 
" style="fill: none; stroke: #000000; stroke-width: 0.8; stroke-linejoin: miter; stroke-linecap: square"/>
   </g>
   <g id="text_39">
    <text style="font-weight: 700; font-size: 8px; font-family: 'Arial', 'DejaVu Sans', sans-serif; text-anchor: end" x="379.407382" y="60.07989" transform="rotate(-0 379.407382 60.07989)">c</text>
   </g>
   <g id="text_40">
    <text style="font-size: 8.4px; font-family: 'Arial', 'DejaVu Sans', sans-serif; text-anchor: middle" x="443.896091" y="55.65864" transform="rotate(-0 443.896091 55.65864)">90% coverage</text>
   </g>
  </g>
  <g id="text_41">
   <text style="font-size: 9px; font-family: 'Arial', 'DejaVu Sans', sans-serif; text-anchor: middle" x="259.38" y="10.804039" transform="rotate(-0 259.38 10.804039)">Development: all prescribed forecast leads</text>
  </g>
  <g id="legend_1">
   <g id="line2d_76">
    <path d="M 171.693516 28.085596 
L 178.693516 28.085596 
L 185.693516 28.085596 
" style="fill: none; stroke: #0072b2; stroke-width: 0.9; stroke-linecap: square"/>
   </g>
   <g id="text_42">
    <text style="font-size: 7px; font-family: 'Arial', 'DejaVu Sans', sans-serif; text-anchor: start" x="191.293516" y="30.535596" transform="rotate(-0 191.293516 30.535596)">One day feedback + B+</text>
   </g>
   <g id="line2d_77">
    <path d="M 171.693516 38.159034 
L 178.693516 38.159034 
L 185.693516 38.159034 
" style="fill: none; stroke-dasharray: 3.33,1.44; stroke-dashoffset: 0; stroke: #d55e00; stroke-width: 0.9"/>
   </g>
   <g id="text_43">
    <text style="font-size: 7px; font-family: 'Arial', 'DejaVu Sans', sans-serif; text-anchor: start" x="191.293516" y="40.609034" transform="rotate(-0 191.293516 40.609034)">One day feedback only</text>
   </g>
   <g id="line2d_78">
    <path d="M 278.841641 28.085596 
L 285.841641 28.085596 
L 292.841641 28.085596 
" style="fill: none; stroke-dasharray: 0.9,1.485; stroke-dashoffset: 0; stroke: #999999; stroke-width: 0.9"/>
   </g>
   <g id="text_44">
    <text style="font-size: 7px; font-family: 'Arial', 'DejaVu Sans', sans-serif; text-anchor: start" x="298.441641" y="30.535596" transform="rotate(-0 298.441641 30.535596)">Anchored B+</text>
   </g>
   <g id="line2d_79">
    <path d="M 278.841641 38.072627 
L 285.841641 38.072627 
L 292.841641 38.072627 
" style="fill: none; stroke-dasharray: 5.76,1.44,0.9,1.44; stroke-dashoffset: 0; stroke: #009e73; stroke-width: 0.9"/>
   </g>
   <g id="text_45">
    <text style="font-size: 7px; font-family: 'Arial', 'DejaVu Sans', sans-serif; text-anchor: start" x="298.441641" y="40.522627" transform="rotate(-0 298.441641 40.522627)">Current velocity</text>
   </g>
  </g>
 </g>
 <defs>
  <clipPath id="p6dbba72301">
   <rect x="38.907" y="61.65864" width="128.977418" height="110.56032"/>
  </clipPath>
  <clipPath id="p9a160dc909">
   <rect x="209.157191" y="61.65864" width="128.977418" height="110.56032"/>
  </clipPath>
  <clipPath id="pd832adfc88">
   <rect x="379.407382" y="61.65864" width="128.977418" height="110.56032"/>
  </clipPath>
 </defs>
</svg>
